<?xml version="1.0" encoding="utf-8"?>
<!-- Generator: Adobe Illustrator 24.1.1, SVG Export Plug-In . SVG Version: 6.00 Build 0)  -->
<svg version="1.1" id="Laag_1" xmlns:serif="http://www.serif.com/"
	 xmlns="http://www.w3.org/2000/svg" xmlns:xlink="http://www.w3.org/1999/xlink" x="0px" y="0px" viewBox="0 0 1592 1592"
	 style="enable-background:new 0 0 1592 1592;" xml:space="preserve">
<style type="text/css">
	.st0{fill:#F0B90B;}
	.st1{fill:#FFFFFF;}
</style>
<g transform="matrix(1.29702,0,0,1.29686,0.0031914,-0.00311808)">
	<g>
		<g>
			<path class="st0" d="M1209.1,762.3c-82,328.8-415,528.9-743.9,446.9c-328.7-82-528.8-415-446.8-743.8
				c81.9-328.9,415-529,743.7-447C1090.9,100.3,1291,433.4,1209.1,762.3z"/>
		</g>
	</g>
</g>
<g>
	<path class="st1" d="M294,795.8l113.3-112.9l113.4,112.9L407.4,908.7L294,795.8z M796,521.6l194.2,193.5l113.5-112.9L909.3,408.8
		L796,295.9L682.6,408.8L488.4,602.2l113.3,112.9L796,521.6z M1071.3,795.8l113.3-112.9L1298,795.8l-113.3,112.9L1071.3,795.8z
		 M796,1069.9L601.7,876.5L488.4,989.3l194.2,193.5L796,1295.7l113.3-112.8l194.3-193.5L990.2,876.4L796,1069.9z"/>
	<path class="st1" d="M682.7,795.8L796,682.9l113.4,112.9L796.1,908.7L682.7,795.8z"/>
</g>
</svg>
