<?xml version="1.0" encoding="utf-8"?>
<!-- Generator: Adobe Illustrator 25.3.1, SVG Export Plug-In . SVG Version: 6.00 Build 0)  -->
<svg version="1.1" id="Layer_1" xmlns="http://www.w3.org/2000/svg" xmlns:xlink="http://www.w3.org/1999/xlink" x="0px" y="0px"
	 viewBox="0 0 1200 1200" style="enable-background:new 0 0 1200 1200;" xml:space="preserve">
<style type="text/css">
	.st0{fill:#1D1963;}
	.st1{fill:#712275;}
	.st2{fill:#E5AB3D;}
	.st3{fill:#E8CA1C;}
	.st4{fill:#ECC528;}
	.st5{fill:#E3CE1B;}
	.st6{fill:#E9945E;}
	.st7{fill:#EBB338;}
	.st8{fill:#EB8A6D;}
	.st9{fill:#F57A97;}
</style>
<path class="st0" d="M1045.1,1198H153.4c-85.1,0-154.1-69-154.1-154.1V155.5c0-85.1,69-154.1,154.1-154.1c0,0,0,0,0,0h891.7
	c85.1,0,154.1,69,154.1,154.1v888.4C1199.2,1129,1130.2,1198,1045.1,1198z"/>
<path class="st1" d="M238,911.7H-0.7V953h278.1C263.5,940.1,250.3,926.2,238,911.7z"/>
<path class="st2" d="M904,911.7H294.5c15.1,15,31.2,28.8,48.3,41.4h512.8C872.8,940.5,888.9,926.6,904,911.7z"/>
<path class="st1" d="M1199.2,911.7H960.6c-12.3,14.6-25.5,28.4-39.5,41.4h278.1V911.7z"/>
<path class="st1" d="M-0.7,870.3h207.1c-9.1-13.4-17.5-27.2-25.2-41.4H-0.7V870.3z"/>
<path class="st1" d="M-0.7,787.5h162c-5.7-13.5-10.7-27.3-15.2-41.4H-0.8L-0.7,787.5z"/>
<path class="st3" d="M1029.2,663.4H169.3c2.1,14,4.7,27.8,8,41.4h844.1C1024.5,691.2,1027.3,677.4,1029.2,663.4z"/>
<path class="st1" d="M868.1,994.4c-23.5,16-48.4,29.8-74.4,41.4h405.5v-41.4H868.1z"/>
<path class="st4" d="M257.3,870.3h683.9c10.3-13.2,19.8-27,28.5-41.4H229.1C237.7,843.2,247.1,857,257.3,870.3z"/>
<path class="st5" d="M992,787.5c6.4-13.5,12.1-27.3,17-41.4H189.6c4.9,14.1,10.6,27.9,17,41.4H992z"/>
<path class="st1" d="M1199.2,828.9h-181.8c-7.7,14.2-16.1,28-25.2,41.4h207.1V828.9z"/>
<path class="st1" d="M1037.2,787.5h162v-41.4h-146.9C1047.9,760.3,1042.9,774,1037.2,787.5z"/>
<path class="st1" d="M135.2,704.8c-4.5-19.8-7.8-40-9.7-60.2c-1-11.4,7.4-21.4,18.7-22.5c0,0,0,0,0,0c0.6,0,1.2,0,1.9,0h906.4
	c11.4,0,20.7,9.3,20.7,20.7c0,0.6,0,1.2,0,1.9c-2,20.3-5.2,40.4-9.7,60.2h135.8V157.4c-0.1-86.2-69.9-156-156.1-156.1H155.4
	C69.2,1.4-0.6,71.2-0.7,157.4v547.3H135.2z M325.8,212c164.1-115.4,382.9-115.4,546.9,0c9.3,6.6,11.6,19.5,5,28.8
	c-3.9,5.5-10.2,8.8-16.9,8.8H337.7c-11.4,0-20.7-9.2-20.7-20.7C317,222.2,320.3,215.9,325.8,212z M175.5,385
	c15.7-30.8,34.7-59.8,56.7-86.5c3.9-4.8,9.8-7.5,16-7.5h702.2c6.2,0,12,2.8,16,7.5c22,26.7,41,55.7,56.7,86.5
	c5.2,10.2,1.2,22.6-9,27.8c-2.9,1.5-6.1,2.3-9.4,2.3H193.9c-11.4,0-20.7-9.3-20.7-20.7C173.2,391.1,174,387.9,175.5,385z
	 M141.5,471.4c2.5-8.9,10.7-15.1,19.9-15h875.7c9.3,0,17.4,6.1,19.9,15c8,28.3,13.4,57.3,16,86.5c1,11.4-7.4,21.4-18.7,22.5
	c0,0,0,0,0,0c-0.6,0-1.2,0-1.9,0H146.1c-11.4,0-20.7-9.3-20.7-20.7c0-0.6,0-1.2,0-1.9C128.1,528.7,133.5,499.7,141.5,471.4z"/>
<path class="st1" d="M330.5,994.4H-0.7v41.4h405.5C378.8,1024.3,353.9,1010.4,330.5,994.4z"/>
<path class="st1" d="M2.6,1077.2c15.2,72.3,78.9,124,152.8,124.1h887.8c73.9-0.1,137.6-51.9,152.8-124.1H2.6z"/>
<path class="st6" d="M940.5,332.4H258.1c-10.4,13.2-20.1,27-28.8,41.4h740.1C960.5,359.4,950.9,345.6,940.5,332.4z"/>
<path class="st7" d="M1021.2,497.9H177.3c-3.3,13.7-6,27.4-8,41.4h859.9C1027.2,525.3,1024.5,511.6,1021.2,497.9z"/>
<path class="st8" d="M413.2,994.4c117.9,55.2,254.2,55.2,372.1,0H413.2z"/>
<path class="st9" d="M599.3,166.8c-64-0.1-127.3,14-185.1,41.4h370.3C726.6,180.9,663.3,166.7,599.3,166.8z"/>
</svg>
