<svg width="102" height="102" viewBox="0 0 102 102" fill="none" xmlns="http://www.w3.org/2000/svg">
<rect width="102" height="102" fill="#00CCFF"/>
<rect width="102" height="102" fill="url(#paint0_linear_11365_113418)"/>
<path d="M18.9728 43.4686C19.5965 42.6186 20.9144 42.7424 20.9144 42.7424H30.2517C30.2517 42.7424 31.0511 42.8528 31.47 43.3796C31.9547 43.9904 31.9722 44.6632 31.9722 44.6632V48.0739L32.3591 47.5164C32.9857 46.7175 32.8493 46.8168 33.7204 45.8972C34.5008 45.0741 35.292 44.5163 36.3883 43.8763C37.4854 43.2376 38.0252 43.0513 39.427 42.6446C40.8279 42.2387 43.1337 42.0352 44.7785 42.0352C47.8853 42.0352 50.6412 42.6449 53.0486 43.8649C55.4549 45.0849 57.2666 47.0016 58.486 49.6154C60.0696 46.8857 61.9597 45.4105 64.1527 44.1347C66.3935 42.8312 69.2761 42.1 72.5659 42.1C75.5502 42.1 78.01 42.5158 80.0513 43.4742C82.0922 44.4322 83.4571 45.5416 84.7187 47.2057C85.9498 48.8296 86.8949 50.8065 87.4131 53.0412C87.9305 55.278 88.4531 58.5572 88.4531 61.1125V83.7609C88.4531 83.7609 88.3366 84.4348 87.9136 84.8623C87.3176 85.4645 86.6505 85.4566 86.6505 85.4566L76.6877 85.463C76.6877 85.463 76.0113 85.5299 75.2676 84.8574C74.5871 84.2421 74.7129 83.2452 74.7129 83.2452L74.719 62.6324C74.7353 60.1653 73.8582 57.2175 72.8109 55.9102C72.006 54.9062 71.0321 54.0393 68.4744 53.7166C67.0834 53.5414 65.4663 53.985 64.4367 54.4519C63.7146 54.7798 62.6451 55.8594 62.1601 56.5511C61.5399 57.4359 60.9919 58.6539 60.7831 59.3728C60.4746 60.4331 60.2552 61.828 60.2552 63.1052L60.2558 83.7518C60.2558 83.7518 60.1363 84.4211 59.6892 84.8574C59.0701 85.4604 58.4857 85.4604 58.4857 85.4604H48.3905C48.3905 85.4604 47.707 85.4604 47.0662 84.8702C46.4969 84.3449 46.5001 83.4835 46.5001 83.4835L46.5156 63.0325C46.5156 62.278 46.4585 61.3225 46.2901 60.2301C46.1214 59.1365 45.9239 58.5481 45.5586 57.5594C45.193 56.5724 44.4315 55.464 43.531 54.8718C42.5644 54.2358 41.6905 53.8074 40.0341 53.7023C38.2696 53.5902 37.2229 53.8956 36.1264 54.5056C35.0296 55.1153 34.2777 55.8923 33.6997 56.9079C33.1197 57.9253 32.7043 59.0755 32.3413 60.3504C31.9879 61.5923 31.9684 62.8427 31.9734 64.3255L31.9579 83.7259C31.9579 83.7259 31.881 84.427 31.3022 84.9689C30.8098 85.43 30.2153 85.4575 30.2153 85.4575H20.2211C20.2211 85.4575 19.4299 85.2998 19.0835 84.8898C18.6401 84.3651 18.5283 83.6549 18.5283 83.6549L18.5347 44.7996C18.5335 44.7993 18.438 44.1969 18.9728 43.4686Z" fill="white"/>
<path d="M24.9023 39.2461C31.1738 39.2461 36.2578 34.2067 36.2578 27.9902C36.2578 21.7738 31.1738 16.7344 24.9023 16.7344C18.6309 16.7344 13.5469 21.7738 13.5469 27.9902C13.5469 34.2067 18.6309 39.2461 24.9023 39.2461Z" fill="white"/>
<defs>
<linearGradient id="paint0_linear_11365_113418" x1="0" y1="0" x2="102" y2="97.6552" gradientUnits="userSpaceOnUse">
<stop offset="0.255208" stop-color="#6600FF"/>
<stop offset="1" stop-color="#524CFF" stop-opacity="0"/>
</linearGradient>
</defs>
</svg>
